<svg id="visual" viewBox="0 0 960 540" width="960" height="540" xmlns="http://www.w3.org/2000/svg" xmlns:xlink="http://www.w3.org/1999/xlink" version="1.1"><rect x="0" y="0" width="960" height="540" fill="#001220"></rect><path d="M0 406L11.5 407.2C23 408.3 46 410.7 68.8 404.8C91.7 399 114.3 385 137.2 381.8C160 378.7 183 386.3 205.8 390C228.7 393.7 251.3 393.3 274.2 389.7C297 386 320 379 342.8 379.3C365.7 379.7 388.3 387.3 411.2 388.5C434 389.7 457 384.3 480 378.3C503 372.3 526 365.7 548.8 372.8C571.7 380 594.3 401 617.2 404.5C640 408 663 394 685.8 388.5C708.7 383 731.3 386 754.2 387.8C777 389.7 800 390.3 822.8 388.8C845.7 387.3 868.3 383.7 891.2 388.5C914 393.3 937 406.7 948.5 413.3L960 420L960 541L948.5 541C937 541 914 541 891.2 541C868.3 541 845.7 541 822.8 541C800 541 777 541 754.2 541C731.3 541 708.7 541 685.8 541C663 541 640 541 617.2 541C594.3 541 571.7 541 548.8 541C526 541 503 541 480 541C457 541 434 541 411.2 541C388.3 541 365.7 541 342.8 541C320 541 297 541 274.2 541C251.3 541 228.7 541 205.8 541C183 541 160 541 137.2 541C114.3 541 91.7 541 68.8 541C46 541 23 541 11.5 541L0 541Z" fill="#c61a62"></path><path d="M0 447L11.5 443.2C23 439.3 46 431.7 68.8 425C91.7 418.3 114.3 412.7 137.2 410.7C160 408.7 183 410.3 205.8 408.3C228.7 406.3 251.3 400.7 274.2 398.3C297 396 320 397 342.8 399C365.7 401 388.3 404 411.2 409.2C434 414.3 457 421.7 480 422.2C503 422.7 526 416.3 548.8 419.5C571.7 422.7 594.3 435.3 617.2 433.2C640 431 663 414 685.8 409C708.7 404 731.3 411 754.2 410.7C777 410.3 800 402.7 822.8 405.2C845.7 407.7 868.3 420.3 891.2 424.2C914 428 937 423 948.5 420.5L960 418L960 541L948.5 541C937 541 914 541 891.2 541C868.3 541 845.7 541 822.8 541C800 541 777 541 754.2 541C731.3 541 708.7 541 685.8 541C663 541 640 541 617.2 541C594.3 541 571.7 541 548.8 541C526 541 503 541 480 541C457 541 434 541 411.2 541C388.3 541 365.7 541 342.8 541C320 541 297 541 274.2 541C251.3 541 228.7 541 205.8 541C183 541 160 541 137.2 541C114.3 541 91.7 541 68.8 541C46 541 23 541 11.5 541L0 541Z" fill="#d65476"></path><path d="M0 452L11.5 451C23 450 46 448 68.8 451.7C91.7 455.3 114.3 464.7 137.2 467.7C160 470.7 183 467.3 205.8 467.3C228.7 467.3 251.3 470.7 274.2 466.7C297 462.7 320 451.3 342.8 448.3C365.7 445.3 388.3 450.7 411.2 453.3C434 456 457 456 480 454C503 452 526 448 548.8 445.3C571.7 442.7 594.3 441.3 617.2 438.7C640 436 663 432 685.8 431.2C708.7 430.3 731.3 432.7 754.2 440.7C777 448.7 800 462.3 822.8 463.2C845.7 464 868.3 452 891.2 451C914 450 937 460 948.5 465L960 470L960 541L948.5 541C937 541 914 541 891.2 541C868.3 541 845.7 541 822.8 541C800 541 777 541 754.2 541C731.3 541 708.7 541 685.8 541C663 541 640 541 617.2 541C594.3 541 571.7 541 548.8 541C526 541 503 541 480 541C457 541 434 541 411.2 541C388.3 541 365.7 541 342.8 541C320 541 297 541 274.2 541C251.3 541 228.7 541 205.8 541C183 541 160 541 137.2 541C114.3 541 91.7 541 68.8 541C46 541 23 541 11.5 541L0 541Z" fill="#e47e8e"></path><path d="M0 457L11.5 463.7C23 470.3 46 483.7 68.8 486.2C91.7 488.7 114.3 480.3 137.2 479.5C160 478.7 183 485.3 205.8 488.8C228.7 492.3 251.3 492.7 274.2 488.5C297 484.3 320 475.7 342.8 474.2C365.7 472.7 388.3 478.3 411.2 481.7C434 485 457 486 480 481.5C503 477 526 467 548.8 467.8C571.7 468.7 594.3 480.3 617.2 480.3C640 480.3 663 468.7 685.8 467.5C708.7 466.3 731.3 475.7 754.2 475.5C777 475.3 800 465.7 822.8 467.8C845.7 470 868.3 484 891.2 484.7C914 485.3 937 472.7 948.5 466.3L960 460L960 541L948.5 541C937 541 914 541 891.2 541C868.3 541 845.7 541 822.8 541C800 541 777 541 754.2 541C731.3 541 708.7 541 685.8 541C663 541 640 541 617.2 541C594.3 541 571.7 541 548.8 541C526 541 503 541 480 541C457 541 434 541 411.2 541C388.3 541 365.7 541 342.8 541C320 541 297 541 274.2 541C251.3 541 228.7 541 205.8 541C183 541 160 541 137.2 541C114.3 541 91.7 541 68.8 541C46 541 23 541 11.5 541L0 541Z" fill="#efa4aa"></path><path d="M0 502L11.5 505C23 508 46 514 68.8 512C91.7 510 114.3 500 137.2 497.3C160 494.7 183 499.3 205.8 502C228.7 504.7 251.3 505.3 274.2 502.8C297 500.3 320 494.7 342.8 493.3C365.7 492 388.3 495 411.2 500.3C434 505.7 457 513.3 480 511.7C503 510 526 499 548.8 494C571.7 489 594.3 490 617.2 492C640 494 663 497 685.8 499.5C708.7 502 731.3 504 754.2 502.7C777 501.3 800 496.7 822.8 494.2C845.7 491.7 868.3 491.3 891.2 495.8C914 500.3 937 509.7 948.5 514.3L960 519L960 541L948.5 541C937 541 914 541 891.2 541C868.3 541 845.7 541 822.8 541C800 541 777 541 754.2 541C731.3 541 708.7 541 685.8 541C663 541 640 541 617.2 541C594.3 541 571.7 541 548.8 541C526 541 503 541 480 541C457 541 434 541 411.2 541C388.3 541 365.7 541 342.8 541C320 541 297 541 274.2 541C251.3 541 228.7 541 205.8 541C183 541 160 541 137.2 541C114.3 541 91.7 541 68.8 541C46 541 23 541 11.5 541L0 541Z" fill="#f7caca"></path></svg>